<svg xmlns="http://www.w3.org/2000/svg" width="532" height="372.38" viewBox="0 0 532 372.38">
  <g id="webDeveloperIlustracao" transform="translate(0)">
    <path id="Caminho_2" data-name="Caminho 2" d="M906.057,747.961c-3.453,13.15-15.553,21.368-15.553,21.368s-6.5-13.1-3.048-26.252,15.553-21.368,15.553-21.368S909.51,734.812,906.057,747.961Z" transform="translate(-478.828 -401.688)" fill="#563d3d"/>
    <path id="Caminho_3" data-name="Caminho 3" d="M904.523,758.485c-9.672,9.555-10.754,24.142-10.754,24.142s14.6-.905,24.271-10.46,10.754-24.142,10.754-24.142S914.194,748.929,904.523,758.485Z" transform="translate(-482.531 -414.993)" fill="#e4373d"/>
    <path id="Caminho_4" data-name="Caminho 4" d="M190.07,652.733h18.214l44.885-17.564s31.875-13.01,29.273,11.709-7.156,57.895-7.156,57.895-14.311-6.505-22.117-4.553-2.6-39.681-2.6-39.681-63.75,30.574-69.6,26.671-7.156-31.224-7.156-31.224Z" transform="translate(-118.515 -356.203)" fill="#412e2e"/>
    <path id="Caminho_5" data-name="Caminho 5" d="M190.07,652.733h18.214l44.885-17.564s31.875-13.01,29.273,11.709-7.156,57.895-7.156,57.895-14.311-6.505-22.117-4.553-2.6-39.681-2.6-39.681-63.75,30.574-69.6,26.671-7.156-31.224-7.156-31.224Z" transform="translate(-118.515 -355.552)" fill="#412e2e" opacity="0.1"/>
    <path id="Caminho_6" data-name="Caminho 6" d="M248.039,558.82l22.043,31.671,51.39,42.933s47.487,11.059,40.982,18.865-46.186-7.806-46.186-7.806-59.2-42.933-61.148-46.186S231.7,564.471,231.7,564.471Z" transform="translate(-147.786 -319.33)" fill="#deb5bb"/>
    <path id="Caminho_7" data-name="Caminho 7" d="M248.039,558.82l22.043,31.671,51.39,42.933s47.487,11.059,40.982,18.865-46.186-7.806-46.186-7.806-59.2-42.933-61.148-46.186S231.7,564.471,231.7,564.471Z" transform="translate(-147.786 -319.33)" opacity="0.1"/>
    <path id="Caminho_8" data-name="Caminho 8" d="M216.327,507.092l14.311,27.972s-3.252,13.661-8.457,14.962-27.321-16.913-27.321-16.913Z" transform="translate(-129.159 -292.827)" fill="#d0cde1"/>
    <path id="Caminho_9" data-name="Caminho 9" d="M216.327,507.092l14.311,27.972s-3.252,13.661-8.457,14.962-27.321-16.913-27.321-16.913Z" transform="translate(-129.159 -292.827)" opacity="0.1"/>
    <path id="Caminho_10" data-name="Caminho 10" d="M571.222,644.049l4.228,17.438a1.088,1.088,0,0,1-.021.588L556.253,722a1.089,1.089,0,0,1-2.12-.209l-2.653-23.345a1.09,1.09,0,0,1,.047-.46l17.6-54.02a1.089,1.089,0,0,1,2.094.081Z" transform="translate(-309.465 -362.002)" fill="#2f2e41"/>
    <path id="Caminho_11" data-name="Caminho 11" d="M509.009,575.493l3.9,14.962L496,645.1l-3.9-16.913Z" transform="translate(-248.807 -291.973)" fill="#f2f2f2"/>
    <path id="Caminho_12" data-name="Caminho 12" d="M415.8,781.748c.651,1.951,67.652-.651,68.3-1.3a14.127,14.127,0,0,0,1.431-2.6c.612-1.3,1.171-2.6,1.171-2.6l-2.6-21.063-66.352-2.355s-1.659,17.85-2,26.02A19.521,19.521,0,0,0,415.8,781.748Z" transform="translate(-240.816 -416.914)" fill="#2f2e41"/>
    <path id="Caminho_13" data-name="Caminho 13" d="M446.385,689.965l1.3,18.214H418.413V689.965Z" transform="translate(-211.552 -349.85)" opacity="0.1"/>
    <path id="Caminho_14" data-name="Caminho 14" d="M381.38,701.771l.174-.035-.825,7.841H364.467v-7.806Z" transform="translate(-184.277 -355.802)" opacity="0.1"/>
    <path id="Caminho_15" data-name="Caminho 15" d="M415.8,808.359c.65,1.952,67.652-.651,68.3-1.3a14.129,14.129,0,0,0,1.431-2.6h-69.78A19.52,19.52,0,0,0,415.8,808.359Z" transform="translate(-240.816 -443.525)" opacity="0.1"/>
    <path id="Caminho_33" data-name="Caminho 33" d="M29.273,0a29.273,29.273,0,0,1,0,58.546c-6.24,0-17.053-5.478-17.053-5.478S0,39.2,0,29.273A29.273,29.273,0,0,1,29.273,0Z" transform="translate(67.653 146.796)" fill="#deb5bb"/>
    <path id="Caminho_16" data-name="Caminho 16" d="M208.5,456.307s-9.758,16.913-11.709,26.02-29.273-18.214-29.273-18.214l-3.578-9.432s25.7-12.034,23.743-21.792S208.5,456.307,208.5,456.307Z" transform="translate(-113.526 -254.304)" fill="#deb5bb"/>
    <path id="Caminho_17" data-name="Caminho 17" d="M232.664,584.722l26.671,35.127,63.75,47.487s46.186,9.758,35.778,16.913-40.331-6.505-40.331-6.505-64.4-34.477-78.061-48.788-39.03-38.38-39.03-38.38Z" transform="translate(-132.485 -332.426)" fill="#deb5bb"/>
    <path id="Caminho_18" data-name="Caminho 18" d="M133.021,691.1l7.806,12.359L187.414,688.8a36.63,36.63,0,0,1,30.5,3.679c8.131,5.123,13.335,13.254,1.626,25.289-23.418,24.069-39.03,11.059-39.03,11.059S101.8,765.909,88.787,747.695s-13.661-27.321-13.661-27.321S125.215,689.149,133.021,691.1Z" transform="translate(-68.621 -384.162)" fill="#412e2e"/>
    <path id="Caminho_19" data-name="Caminho 19" d="M319.741,776.1s20.816,13.661-3.9,20.166-42.933-2.6-42.933-2.6-21.467,0-21.467-11.059,7.156-12.36,7.156-12.36l22.117,3.253S307.382,766.342,319.741,776.1Z" transform="translate(-157.765 -426.228)" fill="#d0cde1"/>
    <path id="Caminho_20" data-name="Caminho 20" d="M242.428,378.3a21.828,21.828,0,0,0,6.134,2.2c2.166.258,4.633-.5,5.658-2.424a7.609,7.609,0,0,0,.643-3.441c.078-3.572-.18-7.434-2.444-10.2-1.441-1.759-3.544-2.868-5.035-4.585a21.666,21.666,0,0,1-2.545-4.159c-2.9-5.447-7.194-10.682-13.162-12.252a28.54,28.54,0,0,0-7.683-.587l-15.028.212a26.164,26.164,0,0,0-7.23.778c-4.837,1.463-8.359,5.53-11.585,9.42a58.922,58.922,0,0,0-6.644,9.169,32.175,32.175,0,0,0-3.814,15.765,14.748,14.748,0,0,0,.54,4.171,23.146,23.146,0,0,0,1.64,3.6c2.818,5.536,4.492,12.45,1.318,17.79,5.513-2.252,10.969-5.205,14.606-9.921,1.627-2.11,2.9-4.58,5.071-6.128s5.7-1.683,7.093.59a6.357,6.357,0,0,1,.717,2.977,13.646,13.646,0,0,0,.822,5.025c.723,1.548,2.446,2.8,4.09,2.334,2.832-.8,2.561-5.145,4.742-7.119,1.657-1.5,4.213-1.213,6.341-1.894a9.41,9.41,0,0,0,5.4-5.319c.806-1.807.794-6.537,2.319-7.516C236.307,375.557,240.656,377.508,242.428,378.3Z" transform="translate(-121.489 -209.554)" fill="#2e2121"/>
    <path id="Caminho_21" data-name="Caminho 21" d="M110.059,472.3a7.721,7.721,0,0,1,4.018.01c4.176,1.121,13.537,4.089,15.544,8.6,2.6,5.854,11.709,14.962,11.709,14.962s12.36,12.36,9.758,20.816-12.36,18.214-12.36,18.214,2.6,40.331-10.408,50.74-18.214,3.253-18.214,13.01-40.332,40.331-48.138,21.466c0,0,3.9-35.127,2.6-47.487C63.288,560.45,65.165,484.449,110.059,472.3Z" transform="translate(-61.968 -275.451)" fill="#d0cde1"/>
    <path id="Caminho_22" data-name="Caminho 22" d="M170.383,504.029s39.681,29.273,32.525,41.632c0,0-24.069,11.709-29.273,11.059s-25.37-23.418-30.574-25.37S135.256,494.272,170.383,504.029Z" transform="translate(-101.43 -290.43)" fill="#d0cde1"/>
    <circle id="Elipse_2" data-name="Elipse 2" cx="32.136" cy="32.136" r="32.136" transform="translate(214.104 84.986)" fill="#f2f2f2"/>
    <path id="Caminho_23" data-name="Caminho 23" d="M912.733,186.89H732.649V149.207H912.733Zm-179.29-.794h178.5V150h-178.5Z" transform="translate(-401.068 -111.227)" fill="#3f3d56"/>
    <rect id="Retângulo_7" data-name="Retângulo 7" width="179.289" height="36.889" transform="translate(319.284 45.516)" fill="#e4373d"/>
    <circle id="Elipse_3" data-name="Elipse 3" cx="2.777" cy="2.777" r="2.777" transform="translate(203.171 4.76)" fill="#413333"/>
    <circle id="Elipse_4" data-name="Elipse 4" cx="2.777" cy="2.777" r="2.777" transform="translate(212.69 4.76)" fill="#413333"/>
    <circle id="Elipse_5" data-name="Elipse 5" cx="2.777" cy="2.777" r="2.777" transform="translate(222.21 4.76)" fill="#413333"/>
    <path id="Caminho_24" data-name="Caminho 24" d="M796.472,289.754H462.487V72.386H796.473Zm-333.192-.793h332.4V73.179h-332.4Z" transform="translate(-264.473 -72.386)" fill="#3f3d56"/>
    <rect id="Retângulo_8" data-name="Retângulo 8" width="333.192" height="0.793" transform="translate(198.411 12.033)" fill="#3f3d56"/>
    <path id="Caminho_25" data-name="Caminho 25" d="M476.893,85.151a3.173,3.173,0,1,1,3.173-3.173A3.173,3.173,0,0,1,476.893,85.151Zm0-5.553a2.38,2.38,0,1,0,2.38,2.38,2.38,2.38,0,0,0-2.38-2.38Z" transform="translate(-270.152 -75.631)" fill="#3f3d56"/>
    <path id="Caminho_26" data-name="Caminho 26" d="M496.148,85.151a3.173,3.173,0,1,1,3.173-3.173A3.173,3.173,0,0,1,496.148,85.151Zm0-5.553a2.38,2.38,0,1,0,2.38,2.38,2.38,2.38,0,0,0-2.38-2.38Z" transform="translate(-279.887 -75.631)" fill="#3f3d56"/>
    <path id="Caminho_27" data-name="Caminho 27" d="M515.4,85.151a3.173,3.173,0,1,1,3.173-3.173A3.173,3.173,0,0,1,515.4,85.151Zm0-5.553a2.38,2.38,0,1,0,2.38,2.38,2.38,2.38,0,0,0-2.38-2.38Z" transform="translate(-289.623 -75.631)" fill="#3f3d56"/>
    <rect id="Retângulo_9" data-name="Retângulo 9" width="0.793" height="204.85" transform="translate(302.623 12.429)" fill="#3f3d56"/>
    <rect id="Retângulo_10" data-name="Retângulo 10" width="58.309" height="7.933" transform="translate(340.506 112.837)" fill="#f2f2f2"/>
    <rect id="Retângulo_11" data-name="Retângulo 11" width="58.309" height="7.933" transform="translate(432.134 112.837)" fill="#f2f2f2"/>
    <path id="Caminho_28" data-name="Caminho 28" d="M815.419,301.146h-59.1V292.42h59.1Zm-58.309-.793h57.516v-7.14H757.111Z" transform="translate(-413.035 -183.935)" fill="#3f3d56"/>
    <rect id="Retângulo_12" data-name="Retângulo 12" width="58.309" height="7.933" transform="translate(340.506 174.151)" fill="#f2f2f2"/>
    <path id="Caminho_29" data-name="Caminho 29" d="M815.419,425.5h-59.1v-8.726h59.1Zm-58.309-.793h57.516v-7.14H757.111Z" transform="translate(-413.035 -246.98)" fill="#3f3d56"/>
    <rect id="Retângulo_13" data-name="Retângulo 13" width="149.936" height="7.933" transform="translate(340.704 142.702)" fill="#f2f2f2"/>
    <path id="Caminho_30" data-name="Caminho 30" d="M907.45,363.325H756.718V354.6h150.73Zm-149.938-.793H906.655v-7.14H757.512Z" transform="translate(-413.238 -215.457)" fill="#3f3d56"/>
    <path id="Caminho_31" data-name="Caminho 31" d="M1000.75,301.146h-59.1V292.42h59.1Zm-58.309-.793h57.515v-7.14H942.444Z" transform="translate(-506.741 -183.935)" fill="#3f3d56"/>
    <path id="Caminho_32" data-name="Caminho 32" d="M537.662,291.1a32.63,32.63,0,1,1,32.63-32.63A32.63,32.63,0,0,1,537.662,291.1Zm0-64.271A31.641,31.641,0,1,0,569.3,258.474,31.641,31.641,0,0,0,537.662,226.833Z" transform="translate(-285.984 -150.221)" fill="#3f3d56"/>
    <rect id="Retângulo_14" data-name="Retângulo 14" width="139.914" height="0.989" transform="translate(369.839 367.056)" fill="#3f3d56"/>
  </g>
</svg>
