<svg xmlns="http://www.w3.org/2000/svg" width="42.335" height="37.045" viewBox="0 0 42.335 37.045">
  <path id="IconReact" d="M34.579,14.256q-.67-.223-1.34-.422c.074-.306.141-.612.207-.918,1.017-4.928.347-8.889-1.91-10.2-2.175-1.249-5.722.05-9.31,3.175-.356.306-.7.628-1.034.951-.223-.215-.455-.43-.686-.637-3.762-3.34-7.533-4.746-9.79-3.431C8.55,4.036,7.9,7.765,8.814,12.428c.091.463.19.918.306,1.381-.529.149-1.05.314-1.538.488C3.167,15.827,0,18.241,0,20.738c0,2.58,3.374,5.168,7.963,6.739.372.124.744.248,1.125.356-.124.5-.232.984-.331,1.488-.868,4.589-.19,8.227,1.976,9.476,2.232,1.29,5.986-.033,9.641-3.233.289-.256.579-.521.868-.8.364.356.744.695,1.125,1.025,3.539,3.043,7.036,4.275,9.195,3.026,2.232-1.29,2.96-5.2,2.018-9.964q-.112-.546-.248-1.116c.265-.074.521-.157.777-.24,4.771-1.579,8.227-4.134,8.227-6.755,0-2.505-3.258-4.936-7.756-6.483ZM23.392,7.236c3.076-2.679,5.945-3.729,7.251-2.977,1.4.8,1.935,4.043,1.058,8.3-.058.281-.116.554-.19.827a42.329,42.329,0,0,0-5.565-.876A41.776,41.776,0,0,0,22.424,8.12c.322-.306.637-.6.967-.885ZM13.825,25.03c.422.719.852,1.439,1.306,2.142a37.442,37.442,0,0,1-3.837-.62,38.625,38.625,0,0,1,1.348-3.679c.38.728.769,1.447,1.182,2.158ZM11.32,15.083c1.191-.265,2.456-.48,3.77-.645-.438.686-.868,1.389-1.273,2.1s-.8,1.422-1.174,2.15c-.521-1.232-.959-2.439-1.323-3.605Zm2.266,5.7c.546-1.141,1.141-2.257,1.769-3.357s1.306-2.166,2.018-3.216c1.24-.091,2.505-.141,3.8-.141s2.563.05,3.8.141q1.054,1.563,2.009,3.2t1.794,3.34q-.831,1.712-1.786,3.374c-.628,1.1-1.3,2.166-2,3.225-1.232.091-2.514.132-3.812.132s-2.555-.041-3.77-.116q-1.079-1.575-2.034-3.225c-.637-1.1-1.224-2.216-1.778-3.357Zm14.933,4.233c.422-.728.819-1.464,1.207-2.208a38.383,38.383,0,0,1,1.4,3.663,36.318,36.318,0,0,1-3.886.661C27.683,26.435,28.1,25.724,28.518,25.013Zm1.191-6.325c-.389-.728-.786-1.455-1.2-2.166s-.827-1.4-1.265-2.084a38.05,38.05,0,0,1,3.8.661,36.593,36.593,0,0,1-1.331,3.589Zm-8.525-9.3a36.309,36.309,0,0,1,2.447,2.96c-1.637-.074-3.283-.074-4.92,0C19.522,11.279,20.357,10.287,21.184,9.386ZM11.592,4.317c1.389-.81,4.473.347,7.723,3.225.207.182.413.38.628.579A42.008,42.008,0,0,0,16.4,12.511a43.586,43.586,0,0,0-5.556.86c-.107-.422-.2-.852-.289-1.282-.777-4-.265-7.02,1.042-7.772Zm-2.026,21.8c-.347-.1-.686-.207-1.025-.322a16.864,16.864,0,0,1-5.209-2.58,3.71,3.71,0,0,1-1.554-2.472c0-1.513,2.613-3.448,6.383-4.763.471-.165.951-.314,1.43-.455a43.967,43.967,0,0,0,2.026,5.259,45.2,45.2,0,0,0-2.051,5.333Zm9.641,8.1a15.134,15.134,0,0,1-4.663,2.919,3.66,3.66,0,0,1-2.919.107c-1.315-.761-1.86-3.679-1.116-7.607.091-.463.19-.926.306-1.381a41.365,41.365,0,0,0,5.614.81A43.636,43.636,0,0,0,20,33.48C19.737,33.736,19.472,33.984,19.208,34.216Zm2.026-2.009c-.843-.91-1.687-1.918-2.505-3,.794.033,1.612.05,2.439.05.852,0,1.687-.017,2.514-.058a35.658,35.658,0,0,1-2.447,3.01ZM32.04,34.687a3.675,3.675,0,0,1-1.364,2.588c-1.315.761-4.118-.232-7.144-2.828-.347-.3-.695-.62-1.05-.951a40.9,40.9,0,0,0,3.489-4.432A40.761,40.761,0,0,0,31.61,28.2c.083.339.157.678.223,1.009a15.073,15.073,0,0,1,.207,5.482Zm1.5-8.889c-.232.074-.463.149-.7.215a42,42,0,0,0-2.108-5.275,41.8,41.8,0,0,0,2.026-5.2c.43.124.843.256,1.24.389,3.853,1.323,6.557,3.291,6.557,4.8,0,1.621-2.886,3.713-7.012,5.077Zm-12.378-1.24a3.787,3.787,0,1,0-3.787-3.787A3.786,3.786,0,0,0,21.167,24.558Z" transform="translate(0 -2.251)" fill="#00d3ff"/>
</svg>
