<svg xmlns="http://www.w3.org/2000/svg" width="40.103" height="39.1" viewBox="0 0 40.103 39.1">
  <path id="IconXD" d="M33,.45H7.1A7.1,7.1,0,0,0,0,7.552v24.9a7.1,7.1,0,0,0,7.1,7.1H33a7.1,7.1,0,0,0,7.1-7.1V7.552A7.1,7.1,0,0,0,33,.45ZM38.415,31.8a6.054,6.054,0,0,1-6.049,6.082H7.736a6.076,6.076,0,0,1-6.066-6.066V8.186A6.076,6.076,0,0,1,7.736,2.121H32.349a6.066,6.066,0,0,1,6.066,6.066ZM15.857,18.747l4.679,8.99c.084.134.033.267-.1.267H17.528a.328.328,0,0,1-.351-.217C16.108,25.581,15.022,23.375,13.9,21h-.033c-1,2.239-2.105,4.6-3.175,6.8a.321.321,0,0,1-.3.184H7.636c-.167,0-.184-.134-.1-.234l4.578-8.722L7.686,10.208a.135.135,0,0,1,.1-.234h2.874a.263.263,0,0,1,.3.184c1.053,2.206,2.122,4.478,3.125,6.7h.033c.969-2.206,2.039-4.495,3.075-6.684.084-.134.134-.217.3-.217h2.69c.134,0,.184.1.1.234Zm5.5,2.724c0-3.893,2.59-6.934,6.7-6.934a7.41,7.41,0,0,1,.869.033V10.141a.167.167,0,0,1,.167-.167h2.64c.134,0,.167.05.167.134V25.447a11.9,11.9,0,0,0,.084,1.638c0,.1-.033.134-.134.184a9.953,9.953,0,0,1-4.278.969C23.945,28.254,21.355,26.015,21.355,21.47Zm7.569-4.278a2.527,2.527,0,0,0-.969-.167c-2.105,0-3.576,1.621-3.576,4.311,0,3.075,1.5,4.311,3.392,4.311a3.152,3.152,0,0,0,1.153-.184V17.193Z" transform="translate(0 -0.45)" fill="#de5ee1"/>
</svg>
