<svg xmlns="http://www.w3.org/2000/svg" width="44" height="44" viewBox="0 0 44 44">
  <g id="IconJS" transform="translate(-114 -1134)">
    <rect id="Retângulo_49" data-name="Retângulo 49" width="44" height="44" transform="translate(114 1134)" fill="#e7ef00"/>
    <g id="Icon_ionic-logo-javascript" data-name="Icon ionic-logo-javascript" transform="translate(128.596 1154.731)">
      <path id="Caminho_65" data-name="Caminho 65" d="M-14.279,2.813h-4.76V15.455c0,3.128-1.073,4-2.94,4a7.112,7.112,0,0,1-2.276-.361l-.5,3.7a11.285,11.285,0,0,0,3.267.482c4.287,0,7.2-2.015,7.2-7.793V2.813Z" transform="translate(24.75 -2.337)"/>
      <path id="Caminho_66" data-name="Caminho 66" d="M-1.476,2.25C-6.084,2.25-9,4.868-9,8.328c0,2.98,2.246,4.845,5.512,6.049,2.362.842,3.3,1.595,3.3,2.828,0,1.354-1.079,2.227-3.12,2.227A10.319,10.319,0,0,1-8.1,18.167h0L-9,21.927a11.8,11.8,0,0,0,5.424,1.265c5.4,0,7.9-2.889,7.9-6.289,0-2.888-1.6-4.754-5.074-6.078C-3.313,9.8-4.392,9.23-4.392,7.936c0-1.023.933-1.956,2.858-1.956A8.231,8.231,0,0,1,2.423,7.01L3.561,3.2A12.256,12.256,0,0,0-1.476,2.25Z" transform="translate(22.327 -2.25)"/>
    </g>
  </g>
</svg>
