<svg xmlns="http://www.w3.org/2000/svg" width="74.671" height="65.337" viewBox="0 0 74.671 65.337">
  <path id="IconeCote" d="M67.67,2.25H49a7,7,0,0,0-7,7V27.918a7,7,0,0,0,7,7H60.67v9.334a9.342,9.342,0,0,1-9.334,9.334H50.169a3.492,3.492,0,0,0-3.5,3.5v7a3.492,3.492,0,0,0,3.5,3.5h1.167A23.328,23.328,0,0,0,74.671,44.252v-35A7,7,0,0,0,67.67,2.25Zm-42,0H7a7,7,0,0,0-7,7V27.918a7,7,0,0,0,7,7H18.668v9.334a9.342,9.342,0,0,1-9.334,9.334H8.167a3.492,3.492,0,0,0-3.5,3.5v7a3.492,3.492,0,0,0,3.5,3.5H9.334A23.328,23.328,0,0,0,32.668,44.252v-35A7,7,0,0,0,25.668,2.25Z" transform="translate(0 -2.25)" fill="#fff" opacity="0.15"/>
</svg>
