<svg xmlns="http://www.w3.org/2000/svg" width="59.204" height="44.021" viewBox="0 0 59.204 44.021">
  <g id="IconHtmlCss" transform="translate(-182.702 -1042)">
    <path id="Icon_awesome-html5" data-name="Icon awesome-html5" d="M0,2.25,2.865,34.977l12.857,4.316,12.939-4.316L31.526,2.25ZM25.3,12.825H10.213l.337,4.085H24.966L23.85,29.181l-8.037,2.232v.025h-.09l-8.1-2.257-.493-6.268h3.916l.287,3.15,4.392,1.2,4.409-1.2.493-5.143H6.921L5.87,8.881H25.664L25.3,12.825Z" transform="translate(182.702 1039.75)" fill="#ff6000"/>
    <path id="Icon_awesome-css3-alt" data-name="Icon awesome-css3-alt" d="M0,2.25,2.865,34.977l12.9,4.316,12.9-4.316L31.526,2.25ZM25.705,8.865l-.394,3.911-9.466,4.076-.025.008h9.154L23.924,28.982l-8.062,2.373L7.75,28.941l-.525-6.11h4.015L11.5,26l4.318,1.1,4.491-1.273.3-5.093L6.962,20.689V20.68l-.016.008-.3-3.828L15.853,13l.534-.223H6.3L5.821,8.865Z" transform="translate(210.38 1046.729)" fill="#0077d2"/>
  </g>
</svg>
