<svg xmlns="http://www.w3.org/2000/svg" width="35.998" height="35.998" viewBox="0 0 35.998 35.998">
  <path id="Icon_simple-next-dot-js" data-name="Icon simple-next-dot-js" d="M26.719,33.753c-.133.07-.126.1.007.032a.342.342,0,0,0,.105-.07c0-.024,0-.021-.113.039Zm.267-.141c-.063.049-.063.053.014.014a.216.216,0,0,0,.078-.053C27.078,33.544,27.06,33.552,26.986,33.612Zm.176-.106c-.063.049-.063.053.014.014a.216.216,0,0,0,.078-.053C27.253,33.438,27.236,33.445,27.162,33.506Zm.176-.1c-.063.049-.063.053.014.014a.216.216,0,0,0,.078-.053C27.429,33.333,27.411,33.34,27.338,33.4Zm.243-.158c-.123.078-.162.131-.052.07.078-.045.2-.141.183-.144a.7.7,0,0,0-.131.073ZM16.821.009c-.078.008-.324.032-.546.049A18.038,18.038,0,0,0,3.34,7.518,17.814,17.814,0,0,0,.164,15.382,13.8,13.8,0,0,0,0,18a13.81,13.81,0,0,0,.162,2.622A18.074,18.074,0,0,0,12.476,35.169a19.018,19.018,0,0,0,3.8.787,33.055,33.055,0,0,0,3.448,0,18.171,18.171,0,0,0,6.485-1.9c.309-.159.369-.2.327-.236Q25.056,31.87,23.6,29.9l-2.879-3.888L17.119,20.67q-1.8-2.679-3.631-5.334c-.014,0-.029,2.368-.035,5.263-.01,5.07-.014,5.274-.078,5.394a.636.636,0,0,1-.309.32c-.113.057-.212.067-.743.067h-.609l-.162-.1a.663.663,0,0,1-.236-.257l-.073-.159.007-7.055.01-7.057.109-.137a.956.956,0,0,1,.261-.215c.144-.071.2-.078.81-.078.719,0,.837.028,1.024.233q2.19,3.259,4.343,6.542c2.337,3.543,5.53,8.38,7.1,10.756l2.85,4.317.144-.095a18.51,18.51,0,0,0,3.7-3.245,17.91,17.91,0,0,0,4.236-9.2A13.8,13.8,0,0,0,36,18.007a13.81,13.81,0,0,0-.162-2.622A18.074,18.074,0,0,0,23.526.843,18.828,18.828,0,0,0,19.779.058c-.337-.034-2.664-.073-2.955-.045ZM24.189,10.9a.707.707,0,0,1,.355.415c.029.092.035,2.047.029,6.456l-.01,6.327-1.116-1.71-1.119-1.71v-4.6c0-2.973.014-4.644.035-4.725a.726.726,0,0,1,.348-.444c.144-.073.2-.081.75-.081C23.98,10.825,24.072,10.833,24.189,10.9Z" transform="translate(-0.002 -0.004)" fill="#fff"/>
</svg>
