<svg xmlns="http://www.w3.org/2000/svg" xmlns:xlink="http://www.w3.org/1999/xlink" width="532" height="344.555" viewBox="0 0 532 344.555">
  <defs>
    <linearGradient id="linear-gradient" x1="0.5" y1="1" x2="0.5" gradientUnits="objectBoundingBox">
      <stop offset="0" stop-color="gray" stop-opacity="0.251"/>
      <stop offset="0.54" stop-color="gray" stop-opacity="0.122"/>
      <stop offset="1" stop-color="gray" stop-opacity="0.102"/>
    </linearGradient>
    <linearGradient id="linear-gradient-2" x1="-18.117" y1="168.355" x2="-18.117" y2="167.355" xlink:href="#linear-gradient"/>
    <linearGradient id="linear-gradient-3" y2="0" xlink:href="#linear-gradient"/>
    <linearGradient id="linear-gradient-4" x1="0.5" x2="0.5" y2="1" gradientUnits="objectBoundingBox">
      <stop offset="0" stop-color="#e4373d"/>
      <stop offset="1" stop-color="#f5576c"/>
    </linearGradient>
  </defs>
  <g id="sobreSvg" transform="translate(-0.102 -0.095)">
    <ellipse id="Elipse_6" data-name="Elipse 6" cx="246.588" cy="14.13" rx="246.588" ry="14.13" transform="translate(9.062 316.39)" fill="#563d3d" opacity="0.1"/>
    <g id="Grupo_9" data-name="Grupo 9" transform="translate(450.368 217.994)" opacity="0.2">
      <path id="Caminho_36" data-name="Caminho 36" d="M1013,788.411a8.077,8.077,0,0,1-.789,1.217q-3.938-2.776-8.008-5.438c.055-.114.114-.232.178-.346a7.677,7.677,0,0,1,2.735-2.972,4.572,4.572,0,0,1,4.558-.392,4.645,4.645,0,0,1,2.252,4,7.676,7.676,0,0,1-.925,3.929Z" transform="translate(-1004.2 -675.251)" fill="#563d3d"/>
      <ellipse id="Elipse_7" data-name="Elipse 7" cx="6.386" cy="4.877" rx="6.386" ry="4.877" transform="translate(0.855 107.374) rotate(-62.09)" fill="#563d3d"/>
      <ellipse id="Elipse_8" data-name="Elipse 8" cx="6.386" cy="4.877" rx="6.386" ry="4.877" transform="translate(4.506 100.476) rotate(-62.09)" fill="#563d3d"/>
      <ellipse id="Elipse_9" data-name="Elipse 9" cx="6.386" cy="4.877" rx="6.386" ry="4.877" transform="translate(8.163 93.575) rotate(-62.09)" fill="#563d3d"/>
      <ellipse id="Elipse_10" data-name="Elipse 10" cx="6.386" cy="4.877" rx="6.386" ry="4.877" transform="translate(11.817 86.673) rotate(-62.09)" fill="#563d3d"/>
      <path id="Caminho_37" data-name="Caminho 37" d="M1032.808,577.658a23.669,23.669,0,0,1-.355-3.191l12.307,4.139-12.307-6.381a23.428,23.428,0,0,1,8.309-16.614l11.9,17.257-9.257-19.176a23.373,23.373,0,1,1,21.878,41.182,23.319,23.319,0,0,1,.365,5.014l-18.756-.146,18.469,3.04a23.4,23.4,0,0,1-13.6,17.63,23.373,23.373,0,1,1-32.467-17.193,23.378,23.378,0,0,1,13.524-25.525Z" transform="translate(-1004.845 -550.143)" fill="#563d3d"/>
      <path id="Caminho_38" data-name="Caminho 38" d="M1062.921,671.6a23.247,23.247,0,0,1-11.181,10.429,23.373,23.373,0,1,1-32.467-17.193C1018.367,659.858,1064.152,669.289,1062.921,671.6Z" transform="translate(-1004.834 -611.781)" fill="#563d3d" opacity="0.1"/>
    </g>
    <g id="Grupo_10" data-name="Grupo 10" transform="translate(423.24 2.809)" opacity="0.2">
      <path id="Caminho_39" data-name="Caminho 39" d="M973.488,480.564a14.417,14.417,0,0,1-1.026,2.115q-6.887-3.674-13.952-7.138c.064-.2.137-.4.214-.6a12.4,12.4,0,0,1,3.783-5.315,6.875,6.875,0,0,1,11.7,4.435,12.4,12.4,0,0,1-.72,6.5Z" transform="translate(-952.208 -290.085)" fill="#563d3d"/>
      <ellipse id="Elipse_11" data-name="Elipse 11" cx="10.342" cy="7.899" rx="10.342" ry="7.899" transform="matrix(0.356, -0.935, 0.935, 0.356, 7.342, 182.726)" fill="#563d3d"/>
      <ellipse id="Elipse_12" data-name="Elipse 12" cx="10.342" cy="7.899" rx="10.342" ry="7.899" transform="matrix(0.356, -0.935, 0.935, 0.356, 11.842, 170.915)" fill="#563d3d"/>
      <ellipse id="Elipse_13" data-name="Elipse 13" cx="10.342" cy="7.899" rx="10.342" ry="7.899" transform="matrix(0.356, -0.935, 0.935, 0.356, 16.335, 159.098)" fill="#563d3d"/>
      <ellipse id="Elipse_14" data-name="Elipse 14" cx="10.342" cy="7.899" rx="10.342" ry="7.899" transform="matrix(0.356, -0.935, 0.935, 0.356, 20.835, 147.292)" fill="#563d3d"/>
      <path id="Caminho_40" data-name="Caminho 40" d="M979.691,127.107a38.018,38.018,0,0,1-1.208-5.1l20.611,4.2-21.04-7.831a37.881,37.881,0,0,1,9.987-28.26l22.589,25.279L991.943,86.44a37.831,37.831,0,1,1,43.342,61.806,38.026,38.026,0,0,1,1.577,7.981l-30.16,3.5,30.279,1.208a37.864,37.864,0,0,1-18.346,31.035,37.831,37.831,0,1,1-55.608-21.158,37.831,37.831,0,0,1,16.646-43.725Z" transform="translate(-944.683 -78.04)" fill="#563d3d"/>
      <path id="Caminho_41" data-name="Caminho 41" d="M1034.524,279.245a37.645,37.645,0,0,1-15.889,18.966,37.831,37.831,0,1,1-55.608-21.158C960.6,269.25,1036.037,275.28,1034.524,279.245Z" transform="translate(-944.683 -184.279)" fill="#563d3d" opacity="0.1"/>
    </g>
    <g id="Grupo_11" data-name="Grupo 11" transform="translate(0.102 0.095)" opacity="0.2">
      <path id="Caminho_42" data-name="Caminho 42" d="M194.074,564.943a17,17,0,0,0,.912,2.644q8.66-3.318,17.516-6.381c-.05-.242-.1-.492-.164-.738a14.772,14.772,0,0,0-3.678-6.837c-2.361-2.425-5.419-3.61-8.359-2.89s-5.1,3.191-6.085,6.381a14.809,14.809,0,0,0-.141,7.822Z" transform="translate(-112.815 -332.456)" fill="#563d3d"/>
      <ellipse id="Elipse_15" data-name="Elipse 15" cx="9.394" cy="12.297" rx="9.394" ry="12.297" transform="translate(74.802 205.927) rotate(-13.72)" fill="#563d3d"/>
      <ellipse id="Elipse_16" data-name="Elipse 16" cx="9.394" cy="12.297" rx="9.394" ry="12.297" transform="translate(71.236 191.332) rotate(-13.72)" fill="#563d3d"/>
      <ellipse id="Elipse_17" data-name="Elipse 17" cx="9.394" cy="12.297" rx="9.394" ry="12.297" transform="translate(67.674 176.731) rotate(-13.72)" fill="#563d3d"/>
      <ellipse id="Elipse_18" data-name="Elipse 18" cx="9.394" cy="12.297" rx="9.394" ry="12.297" transform="translate(64.107 162.126) rotate(-13.72)" fill="#563d3d"/>
      <path id="Caminho_43" data-name="Caminho 43" d="M102.25,135.685a44.6,44.6,0,0,0,2.179-5.834l-24.937,1.905,25.981-6.135a45.037,45.037,0,0,0-7.616-34.837L67.464,117.33,93.8,85.916a45,45,0,1,0-60.257,66.547,45.27,45.27,0,0,0-3.04,9.189l35.074,8.574-35.908-3.04a45.038,45.038,0,0,0,17.061,39.322,44.992,44.992,0,1,0,68.716-16.773,44.992,44.992,0,0,0-13.218-54.049Z" transform="translate(-16.342 -72.085)" fill="#563d3d"/>
      <path id="Caminho_44" data-name="Caminho 44" d="M47.986,310.194A44.8,44.8,0,0,0,63.939,334.94a44.992,44.992,0,1,0,68.716-16.773C136.7,309.3,46.8,305.313,47.986,310.194Z" transform="translate(-33.556 -200.517)" fill="#563d3d" opacity="0.1"/>
    </g>
    <path id="Caminho_45" data-name="Caminho 45" d="M540.655,185.7H99.1a3.938,3.938,0,0,0-3.934,3.947V459.882a7.945,7.945,0,0,0,7.931,7.958H536.658a7.945,7.945,0,0,0,7.931-7.958V189.647A3.943,3.943,0,0,0,540.655,185.7Z" transform="translate(-59.138 -133.819)" fill="url(#linear-gradient)"/>
    <path id="Caminho_46" data-name="Caminho 46" d="M545.022,222.51V478.323a7.867,7.867,0,0,1-7.862,7.863H107.117a7.867,7.867,0,0,1-7.867-7.867V222.51Z" transform="translate(-61.358 -153.851)" fill="#fff"/>
    <path id="Caminho_47" data-name="Caminho 47" d="M545.022,192.912v11.368H99.25V192.912a3.9,3.9,0,0,1,3.9-3.9H541.121a3.9,3.9,0,0,1,3.9,3.9Z" transform="translate(-61.358 -135.621)" fill="#efecec"/>
    <circle id="Elipse_19" data-name="Elipse 19" cx="1.823" cy="1.823" r="1.823" transform="translate(43.133 59.087)" fill="#fa5959" opacity="0.8"/>
    <circle id="Elipse_20" data-name="Elipse 20" cx="1.823" cy="1.823" r="1.823" transform="translate(48.147 59.087)" fill="#fed253" opacity="0.8"/>
    <circle id="Elipse_21" data-name="Elipse 21" cx="1.823" cy="1.823" r="1.823" transform="translate(53.161 59.087)" fill="#8ccf4d" opacity="0.8"/>
    <rect id="Retângulo_30" data-name="Retângulo 30" width="1.823" height="2.735" transform="translate(286.722 45.048) rotate(90)" fill="url(#linear-gradient-2)"/>
    <rect id="Retângulo_31" data-name="Retângulo 31" width="42.845" height="4.558" transform="translate(140.41 91.079)" fill="#f4eded"/>
    <rect id="Retângulo_32" data-name="Retângulo 32" width="240.662" height="4.558" transform="translate(140.41 104.298)" fill="#f4eded"/>
    <rect id="Retângulo_33" data-name="Retângulo 33" width="240.662" height="4.558" transform="translate(140.41 117.516)" fill="#f4eded"/>
    <rect id="Retângulo_34" data-name="Retângulo 34" width="240.662" height="4.558" transform="translate(140.41 130.734)" fill="#f4eded"/>
    <rect id="Retângulo_35" data-name="Retângulo 35" width="240.662" height="4.558" transform="translate(140.41 143.952)" fill="#f4eded"/>
    <rect id="Retângulo_36" data-name="Retângulo 36" width="148.591" height="114.862" transform="translate(186.368 169.167)" fill="#f4eded"/>
    <path id="Caminho_48" data-name="Caminho 48" d="M583.4,500.458c-.191,0-.383.027-.579.032a2.544,2.544,0,0,0,.064-.811,7.75,7.75,0,0,0-.912-3.286,14.269,14.269,0,0,0-1.13-1.714c-1.24-1.714-2.388-3.464-3.751-5.082a8.169,8.169,0,0,1-1.445-2.129,10.394,10.394,0,0,0-.492-1.235,2.657,2.657,0,0,0-2.484-1.208,3.943,3.943,0,0,0-2.516,1.331c-.383.41-.7,1.044-.378,1.509s1.012.524,1.053,1.035c0,.274,0,.72-.278.807a4.953,4.953,0,0,0-1.395.611,1.646,1.646,0,0,0-.734,1.276c.788.119,1.449-.542,2.165-.912a4,4,0,0,1,2.862-.1,2.678,2.678,0,0,1,.985.5,3.47,3.47,0,0,1,.638.857,9.148,9.148,0,0,1,1.577,4.275l.4,2.562a16.649,16.649,0,0,0-1.769.237,11.107,11.107,0,0,1-4.708-.319c-1.6-.456-3.191-1.285-4.836-.912-.77.169-1.472.6-2.252.72a6.167,6.167,0,0,1-1.823-.1l-1.253-.2c-.041-.1-.073-.214-.1-.324a9.455,9.455,0,0,1-.356-2.812,5.014,5.014,0,0,0,4.285-7.106,4.253,4.253,0,0,0,1.618-1.609l-.319-.059.3-.456a.538.538,0,0,1-.087-.852,1.717,1.717,0,0,0-.861-.191c.1-.178-.059-.4-.246-.456a2.143,2.143,0,0,0-.593-.036,2.9,2.9,0,0,1-.848-.2c-1.946-.67-4.057-1.258-6.039-.7a7.552,7.552,0,0,0-2.411,1.267,3.149,3.149,0,0,0-1.285,4.134,10.7,10.7,0,0,1,.643,2.32,7.364,7.364,0,0,1-.251,2.2,8.974,8.974,0,0,0,1.326.3,7.518,7.518,0,0,1-1.317,2.7,10.723,10.723,0,0,1-.912,1.007H552.9a22.157,22.157,0,0,1-2.735.337c-.966,0-1.914-.365-2.876-.3a7.794,7.794,0,0,0-1.673.378,25.63,25.63,0,0,1-7.708,1.03l-.315.032.292-1.86a9.149,9.149,0,0,1,1.577-4.275,3.469,3.469,0,0,1,.638-.857,2.7,2.7,0,0,1,.989-.5,3.984,3.984,0,0,1,2.858.1c.716.351,1.367,1.012,2.17.912a1.659,1.659,0,0,0-.738-1.276,4.952,4.952,0,0,0-1.395-.611c-.264-.087-.3-.533-.278-.807.041-.511.766-.62,1.053-1.039s0-1.094-.378-1.509a3.947,3.947,0,0,0-2.516-1.326,2.648,2.648,0,0,0-2.479,1.208,9.694,9.694,0,0,0-.5,1.235,8.168,8.168,0,0,1-1.445,2.129c-1.367,1.618-2.511,3.368-3.751,5.082a15.2,15.2,0,0,0-1.13,1.709,7.859,7.859,0,0,0-.912,3.291,2.572,2.572,0,0,0,.064.816.524.524,0,0,0-.05.205.948.948,0,0,0,.356.638,6.235,6.235,0,0,0,2.37,1.727,14.568,14.568,0,0,0,1.773.305c1.44.26,2.767,1.094,4.23,1.089a21.6,21.6,0,0,1,2.995-.26,5.307,5.307,0,0,1,3.191,2.379,8.2,8.2,0,0,1,1.573,2.876c.324,1.272.123,2.7.8,3.824a2.6,2.6,0,0,1,.392.757,2.535,2.535,0,0,1-.278,1.24c-.574,1.764.684,3.646.552,5.47-.064.889-.456,1.727-.5,2.616-.068,1.144.4,2.425-.242,3.378.388-.2.779-.378,1.181-.538-1.914,5.611-3.646,11.4-3.514,17.293.1,3.824.912,8.036-1.285,11.176a4.412,4.412,0,0,0-.734,1.253,4.262,4.262,0,0,0,.114,1.9c.406,2.735-1.071,5.429-1.171,8.2a16.544,16.544,0,0,0,.164,2.557l.538,4.622a3.357,3.357,0,0,0-1.468.729,1.8,1.8,0,0,0-.8,1.887,1.884,1.884,0,0,0,1.422.953,3.565,3.565,0,0,1,1.65.625,6.334,6.334,0,0,0,.5.492,1.823,1.823,0,0,0,1.1.205c.7-.027,1.367-.087,2.078-.182a.824.824,0,0,0,.415-.132.912.912,0,0,0,.232-.684,9.06,9.06,0,0,0-.087-2.078c-.027-.132-.064-.26-.1-.392a8.092,8.092,0,0,0,.506-1.823c.141-.912.164-1.864.223-2.8.137-2.379.456-4.74.82-7.1l.456-3.036c.141-1,.287-2,.456-2.995a94.174,94.174,0,0,1,3.929-15.907c.388-1.108,1.048-2.407,2.22-2.439l.7,1.367a48.2,48.2,0,0,1,2.16,5.415c.912,2.366.6,5.128,1.823,7.352a10.1,10.1,0,0,1,.606,1.108,6.385,6.385,0,0,1,.374,1.855l.807,8.2c.365,3.687.757,7.475,2.411,10.789a4.153,4.153,0,0,0,.365.611,10.588,10.588,0,0,0-.023,1.659.652.652,0,0,0,.647.816c.688.091,1.367.151,2.074.178a1.824,1.824,0,0,0,1.1-.205,5.091,5.091,0,0,0,.5-.492,3.547,3.547,0,0,1,1.645-.624,1.862,1.862,0,0,0,1.422-.953,1.794,1.794,0,0,0-.8-1.887,3.191,3.191,0,0,0-1.623-.752,2.7,2.7,0,0,1-.738-.059,3.647,3.647,0,0,0,.055-.912,4.557,4.557,0,0,1-.046-1.085,6.425,6.425,0,0,1,.374-1.066c.524-1.614-.593-3.255-.985-4.9-.524-2.2.255-4.5.114-6.755-.219-3.542-2.689-6.864-2.033-10.351a23.6,23.6,0,0,0-.419-8.451l-1.823-10.4a11.517,11.517,0,0,0-.661-2.466,5.825,5.825,0,0,0,.994-.264,7.114,7.114,0,0,0,.242-3.532c-.137-1.194-.456-2.361-.615-3.546a23.354,23.354,0,0,1-.237-2.876,11.6,11.6,0,0,1,.2-2.835,13.641,13.641,0,0,1,.852-2.384,42.328,42.328,0,0,1,3.191-6.381c1.873-.146,3.688-.305,5.556-.456a7.725,7.725,0,0,0,1.331-.178,16.805,16.805,0,0,1,1.7-.488,2.281,2.281,0,0,0,.629-.123c.41-.187.661-.711,1.112-.729a1.937,1.937,0,0,0,.51,0c.2-.064.3-.283.456-.456.283-.315.743-.378,1.112-.583A1.614,1.614,0,0,0,583.4,500.458Z" transform="translate(-296.666 -295.707)" fill="url(#linear-gradient-3)"/>
    <path id="Caminho_64" data-name="Caminho 64" d="M5.014,0A5.014,5.014,0,1,1,0,5.014,5.014,5.014,0,0,1,5.014,0Z" transform="translate(258.011 189.737)" fill="#deb5bb"/>
    <path id="Caminho_49" data-name="Caminho 49" d="M578.439,506.524a12.5,12.5,0,0,1-1.709,1.727,13.578,13.578,0,0,0,9.8,1.614c-.123-.342-.57-.392-.884-.565a1.91,1.91,0,0,1-.775-1.222,9.545,9.545,0,0,1-.292-3.7,2.281,2.281,0,0,0,0-.912,1.956,1.956,0,0,0-.943-1.039,9.3,9.3,0,0,0-2.279-1.026c-.829-.246-1.3-.36-1.335.606a7.681,7.681,0,0,1-1.582,4.512Z" transform="translate(-321.203 -305.533)" fill="#deb5bb"/>
    <path id="Caminho_50" data-name="Caminho 50" d="M621.1,502.575l-.51-3.236a12.013,12.013,0,0,0-.406-1.923,12.406,12.406,0,0,0-1.167-2.334,3.449,3.449,0,0,0-.638-.852,2.681,2.681,0,0,0-.985-.5,3.97,3.97,0,0,0-2.853.109c-.716.346-1.367,1-2.165.889a1.632,1.632,0,0,1,.738-1.272,4.816,4.816,0,0,1,1.367-.611c.26-.082.3-.529.278-.8-.041-.506-.766-.615-1.053-1.03s0-1.089.374-1.5a3.924,3.924,0,0,1,2.511-1.317,2.634,2.634,0,0,1,2.479,1.2,9.641,9.641,0,0,1,.5,1.231,8.2,8.2,0,0,0,1.44,2.119c1.367,1.609,2.511,3.35,3.747,5.055a15.756,15.756,0,0,1,1.13,1.7,7.708,7.708,0,0,1,.912,3.273,2.039,2.039,0,0,1-.15,1.035,1.6,1.6,0,0,1-1.368.784,4.846,4.846,0,0,1-1.636-.328l-1.987-.67a1.294,1.294,0,0,1-.638-.351A.5.5,0,0,1,621.1,502.575Z" transform="translate(-340.604 -298.43)" fill="#deb5bb"/>
    <path id="Caminho_51" data-name="Caminho 51" d="M537.553,504.145l.506-3.236a12.55,12.55,0,0,1,.41-1.924,12.134,12.134,0,0,1,1.167-2.334,3.221,3.221,0,0,1,.634-.848,2.579,2.579,0,0,1,.984-.5,3.984,3.984,0,0,1,2.858.1c.716.346,1.367,1,2.165.889a1.641,1.641,0,0,0-.738-1.272,4.87,4.87,0,0,0-1.367-.611c-.26-.082-.3-.529-.278-.8.041-.506.761-.615,1.053-1.03s0-1.089-.378-1.5a3.92,3.92,0,0,0-2.511-1.322,2.639,2.639,0,0,0-2.48,1.2,9.618,9.618,0,0,0-.492,1.231,8.3,8.3,0,0,1-1.44,2.119c-1.367,1.609-2.511,3.35-3.751,5.055a15.5,15.5,0,0,0-1.126,1.7,7.781,7.781,0,0,0-.912,3.273,2.064,2.064,0,0,0,.155,1.039,1.609,1.609,0,0,0,1.39.779,4.715,4.715,0,0,0,1.632-.328l1.992-.652a1.262,1.262,0,0,0,.634-.351A.5.5,0,0,0,537.553,504.145Z" transform="translate(-296.776 -299.284)" fill="#deb5bb"/>
    <path id="Caminho_52" data-name="Caminho 52" d="M615.674,681.255a1.788,1.788,0,0,1,.8,1.878,1.888,1.888,0,0,1-1.422.948,3.592,3.592,0,0,0-1.645.62,5.016,5.016,0,0,1-.5.47,1.791,1.791,0,0,1-1.1.205c-.693-.027-1.367-.086-2.074-.178a.826.826,0,0,1-.415-.132.88.88,0,0,1-.228-.679,8.715,8.715,0,0,1,.082-2.069,2.962,2.962,0,0,1,1-1.764c.529-.41,2.133-1.627,2.735-.848.159.21.1.5.319.67s.574.077.83.109a3.191,3.191,0,0,1,1.623.77Z" transform="translate(-338.797 -402.518)" fill="#100f13"/>
    <path id="Caminho_53" data-name="Caminho 53" d="M554.961,681.8a1.788,1.788,0,0,0-.8,1.878,1.86,1.86,0,0,0,1.417.948,3.573,3.573,0,0,1,1.645.62,5.084,5.084,0,0,0,.5.492,1.823,1.823,0,0,0,1.1.205c.693-.027,1.367-.087,2.074-.182a.811.811,0,0,0,.415-.132.88.88,0,0,0,.232-.679,8.928,8.928,0,0,0-.087-2.065,2.94,2.94,0,0,0-1-1.768c-.524-.41-2.129-1.627-2.735-.848-.159.21-.1.5-.324.67s-.57.078-.829.109A3.218,3.218,0,0,0,554.961,681.8Z" transform="translate(-308.882 -402.823)" fill="#100f13"/>
    <path id="Caminho_54" data-name="Caminho 54" d="M564.677,576.169c-2.056,5.925-4.052,12.056-3.9,18.341.1,3.806.912,8-1.281,11.122a4.348,4.348,0,0,0-.734,1.249,4.289,4.289,0,0,0,.109,1.887c.41,2.735-1.062,5.406-1.167,8.168a16.406,16.406,0,0,0,.164,2.543l.57,4.868c.191,1.668,2.343,2.352,4,2.584a6.2,6.2,0,0,0,1.408-3.277c.141-.912.164-1.855.219-2.78.141-2.37.483-4.722.82-7.069l.456-3.022c.146-.994.287-1.987.456-2.981a93.748,93.748,0,0,1,3.934-15.784c.387-1.108,1.048-2.4,2.215-2.429l.7,1.34a47.4,47.4,0,0,1,2.156,5.388c.912,2.356.6,5.1,1.823,7.32a9.228,9.228,0,0,1,.6,1.1,6.334,6.334,0,0,1,.374,1.823l.807,8.15c.365,3.669.752,7.439,2.407,10.734a2.492,2.492,0,0,0,.761,1,2.065,2.065,0,0,0,2.279-.251,3.888,3.888,0,0,0,1.577-3.364,5.049,5.049,0,0,1-.046-1.08,7.185,7.185,0,0,1,.374-1.062c.529-1.6-.588-3.236-.985-4.877-.524-2.188.255-4.476.118-6.723-.219-3.528-2.685-6.837-2.033-10.306a23.47,23.47,0,0,0-.415-8.409L580.6,580.025c-.292-1.632-.729-3.473-2.183-4.271a5.424,5.424,0,0,0-2.657-.456C571.993,575.3,568.392,575.823,564.677,576.169Z" transform="translate(-310.851 -345.829)" fill="#2b2a30"/>
    <path id="Caminho_55" data-name="Caminho 55" d="M583.5,518.169a6.519,6.519,0,0,1-3.829-.793,7.676,7.676,0,0,0-1.408-.739,6.4,6.4,0,0,0-2.871.1,11.214,11.214,0,0,1-4.7-.319c-1.6-.456-3.19-1.281-4.831-.912-.77.169-1.468.593-2.247.716a5.983,5.983,0,0,1-1.823-.1l-5.2-.811a14.212,14.212,0,0,0-3.564-.255,23.1,23.1,0,0,1-2.735.342c-.962,0-1.91-.365-2.872-.3a7.823,7.823,0,0,0-1.668.378,25.674,25.674,0,0,1-7.689,1.026,11.545,11.545,0,0,0-5.784,2.006.911.911,0,0,0-.456.634.934.934,0,0,0,.36.629,6.174,6.174,0,0,0,2.366,1.723,14.334,14.334,0,0,0,1.769.3c1.436.264,2.762,1.089,4.221,1.089a21.547,21.547,0,0,1,2.99-.26A5.315,5.315,0,0,1,546.725,525a8.279,8.279,0,0,1,1.573,2.863c.319,1.267.119,2.689.8,3.806a2.636,2.636,0,0,1,.392.752,2.507,2.507,0,0,1-.278,1.235c-.574,1.755.684,3.61.552,5.47-.064.88-.456,1.718-.5,2.6-.064,1.144.4,2.416-.242,3.364a16.341,16.341,0,0,1,7.954-1.737,9.968,9.968,0,0,1,1.367.128,19.157,19.157,0,0,1,2.589.72,9.169,9.169,0,0,0,5.88.346,6.994,6.994,0,0,0,.237-3.514c-.141-1.185-.433-2.352-.611-3.532a23.142,23.142,0,0,1-.237-2.862,11.476,11.476,0,0,1,.2-2.821,13.37,13.37,0,0,1,.852-2.37,41.775,41.775,0,0,1,3.191-6.381c1.869-.15,3.678-.31,5.547-.456a8.607,8.607,0,0,0,1.326-.178,17.058,17.058,0,0,1,1.7-.483,2.239,2.239,0,0,0,.629-.128c.41-.187.665-.706,1.112-.72a2.127,2.127,0,0,0,.511,0c.2-.059.3-.283.456-.456.283-.314.743-.378,1.112-.579A1.6,1.6,0,0,0,583.5,518.169Z" transform="translate(-296.769 -313.048)" fill="url(#linear-gradient-4)"/>
    <path id="Caminho_56" data-name="Caminho 56" d="M586.287,492.79a.911.911,0,0,0,1.035.064,1.286,1.286,0,0,0,.383-.7,16.14,16.14,0,0,0,.4-1.732,1.9,1.9,0,0,1,.228-.725c.333-.51,1.053-.538,1.614-.77A4.194,4.194,0,0,0,591.6,487.3l-.314-.064.3-.456a.529.529,0,0,1-.082-.843,1.682,1.682,0,0,0-.866-.2c.1-.173-.059-.392-.246-.456a1.947,1.947,0,0,0-.588-.032,2.909,2.909,0,0,1-.848-.2c-1.942-.665-4.048-1.253-6.026-.693a7.494,7.494,0,0,0-2.411,1.263,3.131,3.131,0,0,0-1.281,4.1,10.614,10.614,0,0,1,.638,2.3,7.329,7.329,0,0,1-.246,2.2,7.164,7.164,0,0,0,1.664.324,2.388,2.388,0,0,0,1.6-.456,9.067,9.067,0,0,0,1.085-1.49,1.545,1.545,0,0,1,1.317-.693C585.79,491.988,585.882,492.5,586.287,492.79Z" transform="translate(-322.392 -296.229)" fill="#2b2a30"/>
    <path id="Caminho_57" data-name="Caminho 57" d="M450.2,692h-5.337a.7.7,0,0,0,0,1.367h1.067v9.057H427.667a.506.506,0,0,0-.406-.246h-5.333a.7.7,0,0,0,0,1.367H423v9.3H405.36a.565.565,0,0,0-.5-.492H399.53a.693.693,0,0,0,0,1.367h.533V723.3H382.137a.457.457,0,0,0-.219-.059h-5.333a.7.7,0,0,0,0,1.367h.533v9.116h-17.7a.511.511,0,0,0-.456-.31h-5.333a.7.7,0,0,0,0,1.367h.533v10.1H474.738V692Z" transform="translate(-199.488 -409.348)" fill="#302a2a"/>
    <path id="Caminho_58" data-name="Caminho 58" d="M169.322,290.786a12.621,12.621,0,0,0-1.782-1.905,1.531,1.531,0,0,1,.169-2.439c.219-.141.433-.292.647-.456,2.489-1.892,3.747-4.43,2.8-5.675s-3.728-.716-6.217,1.176a9.571,9.571,0,0,0-.825.688,1.527,1.527,0,0,1-2.388-.456,12.888,12.888,0,0,0-1.226-1.951c-2.215-2.917-5.187-4.389-6.641-3.286s-.843,4.367,1.367,7.293a12.568,12.568,0,0,0,1.436,1.6,1.541,1.541,0,0,1-.337,2.457h0c-2.735,1.563-4.28,3.92-3.505,5.274s3.61,1.185,6.322-.374a11.909,11.909,0,0,0,1.212-.807,1.541,1.541,0,0,1,2.325.565,11.969,11.969,0,0,0,1.367,2.279c2.211,2.917,5.187,4.389,6.641,3.286S171.532,293.707,169.322,290.786Z" transform="translate(-90.403 -183.024)" fill="#ff6363" opacity="0.1"/>
    <path id="Caminho_59" data-name="Caminho 59" d="M888.688,458.093A12.417,12.417,0,0,0,890,455.837a1.523,1.523,0,0,1,2.375-.547c.2.164.41.324.624.483,2.534,1.823,5.333,2.279,6.245,1.026s-.4-3.774-2.935-5.606q-.456-.324-.912-.588a1.527,1.527,0,0,1-.251-2.42,12.377,12.377,0,0,0,1.5-1.741c2.147-2.967,2.685-6.24,1.208-7.293s-4.421.456-6.568,3.441a12.841,12.841,0,0,0-1.108,1.823,1.541,1.541,0,0,1-2.448.4h0c-2.279-2.138-5.014-2.949-6.067-1.823s-.078,3.8,2.206,5.925a11.011,11.011,0,0,0,1.126.912,1.541,1.541,0,0,1,.132,2.388,12.234,12.234,0,0,0-1.791,2c-2.147,2.967-2.685,6.24-1.2,7.293S886.542,461.065,888.688,458.093Z" transform="translate(-486.918 -271.565)" fill="#ff6363" opacity="0.1"/>
    <ellipse id="Elipse_23" data-name="Elipse 23" cx="15.406" cy="2.963" rx="15.406" ry="2.963" transform="translate(388.698 334.467)" fill="#e4373d"/>
    <ellipse id="Elipse_24" data-name="Elipse 24" cx="1.796" cy="2.347" rx="1.796" ry="2.347" transform="translate(402.053 333.825)" fill="#3f3d56"/>
    <ellipse id="Elipse_25" data-name="Elipse 25" cx="1.796" cy="2.347" rx="1.796" ry="2.347" transform="translate(402.053 330.953)" fill="#3f3d56"/>
    <ellipse id="Elipse_26" data-name="Elipse 26" cx="1.796" cy="2.347" rx="1.796" ry="2.347" transform="translate(402.053 328.086)" fill="#3f3d56"/>
    <ellipse id="Elipse_27" data-name="Elipse 27" cx="1.796" cy="2.347" rx="1.796" ry="2.347" transform="translate(402.053 325.215)" fill="#3f3d56"/>
    <ellipse id="Elipse_28" data-name="Elipse 28" cx="1.796" cy="2.347" rx="1.796" ry="2.347" transform="translate(402.053 322.343)" fill="#3f3d56"/>
    <ellipse id="Elipse_29" data-name="Elipse 29" cx="1.796" cy="2.347" rx="1.796" ry="2.347" transform="translate(402.053 319.476)" fill="#3f3d56"/>
    <ellipse id="Elipse_30" data-name="Elipse 30" cx="1.796" cy="2.347" rx="1.796" ry="2.347" transform="translate(402.053 316.605)" fill="#3f3d56"/>
    <path id="Caminho_60" data-name="Caminho 60" d="M898.53,711.981A9.1,9.1,0,0,0,899.2,711l-4.708-.775,5.1.041a8.588,8.588,0,0,0,.164-6.81L892.91,707l6.308-4.635a8.592,8.592,0,1,0-14.194,9.617,8.784,8.784,0,0,0-.98,1.568l6.121,3.191-6.527-2.188a8.61,8.61,0,0,0,1.367,8.068,8.592,8.592,0,1,0,13.51,0,8.6,8.6,0,0,0,0-10.625Z" transform="translate(-487.967 -412.67)" fill="#e4373d"/>
    <path id="Caminho_61" data-name="Caminho 61" d="M883.183,740.05a8.584,8.584,0,0,0,1.823,5.315,8.592,8.592,0,1,0,13.51,0C899.679,743.9,883.183,739.088,883.183,740.05Z" transform="translate(-487.968 -435.428)" fill="#e4373d" opacity="0.1"/>
    <ellipse id="Elipse_31" data-name="Elipse 31" cx="6.974" cy="1.34" rx="6.974" ry="1.34" transform="translate(116.357 336.797)" fill="#e4373d"/>
    <ellipse id="Elipse_32" data-name="Elipse 32" cx="0.811" cy="1.062" rx="0.811" ry="1.062" transform="translate(122.406 336.505)" fill="#3f3d56"/>
    <ellipse id="Elipse_33" data-name="Elipse 33" cx="0.811" cy="1.062" rx="0.811" ry="1.062" transform="translate(122.406 335.206)" fill="#3f3d56"/>
    <ellipse id="Elipse_34" data-name="Elipse 34" cx="0.811" cy="1.062" rx="0.811" ry="1.062" transform="translate(122.406 333.907)" fill="#3f3d56"/>
    <ellipse id="Elipse_35" data-name="Elipse 35" cx="0.811" cy="1.062" rx="0.811" ry="1.062" transform="translate(122.406 332.608)" fill="#3f3d56"/>
    <ellipse id="Elipse_36" data-name="Elipse 36" cx="0.811" cy="1.062" rx="0.811" ry="1.062" transform="translate(122.406 331.309)" fill="#3f3d56"/>
    <ellipse id="Elipse_37" data-name="Elipse 37" cx="0.811" cy="1.062" rx="0.811" ry="1.062" transform="translate(122.406 330.01)" fill="#3f3d56"/>
    <ellipse id="Elipse_38" data-name="Elipse 38" cx="0.811" cy="1.062" rx="0.811" ry="1.062" transform="translate(122.406 328.711)" fill="#3f3d56"/>
    <path id="Caminho_62" data-name="Caminho 62" d="M284.8,768.339a3.684,3.684,0,0,0,.305-.456l-2.133-.351h2.306a3.894,3.894,0,0,0,.356-1.627,3.843,3.843,0,0,0-.283-1.454l-3.095,1.6,2.853-2.1a10.907,10.907,0,0,0-6.878,5.059l2.767,1.44-2.954-.994a48.6,48.6,0,0,1,1.043,8.915,7.884,7.884,0,0,0,5.7-10.078Z" transform="translate(-158.544 -447.459)" fill="#e4373d"/>
    <path id="Caminho_63" data-name="Caminho 63" d="M277.867,781.072a15.4,15.4,0,0,1,1.248,7.676,3.893,3.893,0,0,0,5.7-5.269C285.338,782.831,277.867,780.634,277.867,781.072Z" transform="translate(-158.561 -457.79)" fill="#e4373d" opacity="0.1"/>
  </g>
</svg>
