<svg xmlns="http://www.w3.org/2000/svg" width="36.28" height="36.318" viewBox="0 0 36.28 36.318">
  <g id="strapi-2" transform="translate(-0.586 -0.76)">
    <path id="Caminho_70" data-name="Caminho 70" d="M90.7,25.458V13.678a.76.76,0,0,0-.759-.759H78.178V.76h23.911a.76.76,0,0,1,.76.76V25.458Z" transform="translate(-65.983)" fill="#8e75ff" fill-rule="evenodd"/>
    <path id="Caminho_71" data-name="Caminho 71" d="M12.195.76V12.919H.965A.38.38,0,0,1,.7,12.271ZM24.72,36.7V25.458H36.865l-11.5,11.509a.38.38,0,0,1-.648-.268ZM12.195,12.919H24.34a.38.38,0,0,1,.38.38V25.458H12.954a.76.76,0,0,1-.76-.76Z" transform="translate(0 0)" fill="#8e75ff" fill-rule="evenodd" opacity="0.405"/>
  </g>
</svg>
