<svg xmlns="http://www.w3.org/2000/svg" width="31.79" height="44.507" viewBox="0 0 31.79 44.507">
  <g id="supabaseIcon" transform="translate(-65 -16)">
    <path id="Caminho_72" data-name="Caminho 72" d="M115.146,17.62a1.619,1.619,0,0,0-2.759-1.15l-.225.25L99.675,33.6h12.392l3.017-15.526.055-.3Q115.146,17.7,115.146,17.62Z" transform="translate(-30.176)" fill="#3ecf8e"/>
    <path id="Caminho_73" data-name="Caminho 73" d="M65,158.623a2.591,2.591,0,0,0,2.591,2.592H80.035l1.857-9.557H69.5l-3.755,5.077-.242.354A2.581,2.581,0,0,0,65,158.623Z" transform="translate(0 -118.055)" fill="#3ecf8e"/>
    <path id="Caminho_74" data-name="Caminho 74" d="M197.625,154.25a2.591,2.591,0,0,0-2.591-2.592H182.727l-1.857,9.557h12.24l3.945-5.333.157-.227A2.58,2.58,0,0,0,197.625,154.25Z" transform="translate(-100.835 -118.055)" fill="#3ecf8e"/>
    <path id="Caminho_75" data-name="Caminho 75" d="M157.533,241.036a1.619,1.619,0,0,0,2.826,1.08l.064-.072L172.8,225.308h-12.24l-2.969,15.283-.008.041A1.619,1.619,0,0,0,157.533,241.036Z" transform="translate(-80.526 -182.149)" fill="#3ecf8e"/>
    <path id="Caminho_76" data-name="Caminho 76" d="M157.533,241.036a1.619,1.619,0,0,0,2.826,1.08l.064-.072L172.8,225.308h-12.24l-2.969,15.283-.008.041A1.619,1.619,0,0,0,157.533,241.036Z" transform="translate(-80.526 -182.149)" fill="#3ecf8e"/>
  </g>
</svg>
