<svg xmlns="http://www.w3.org/2000/svg" width="628" height="440.757" viewBox="0 0 628 440.757">
  <g id="Grupo_8" data-name="Grupo 8" transform="translate(-596 -120)">
    <path id="Caminho_1" data-name="Caminho 1" d="M909.6,752.7c-4.076,15.523-18.36,25.223-18.36,25.223s-7.675-15.467-3.6-30.99S906,721.709,906,721.709,913.672,737.176,909.6,752.7Z" transform="translate(190.727 -222.759)" fill="#3f3d56"/>
    <path id="Caminho_2" data-name="Caminho 2" d="M906.463,760.373c-11.417,11.28-12.694,28.5-12.694,28.5S911,787.8,922.419,776.523s12.694-28.5,12.694-28.5S917.88,749.093,906.463,760.373Z" transform="translate(187.677 -233.716)" fill="#7a55e5"/>
    <path id="Caminho_3" data-name="Caminho 3" d="M193.005,656.52h21.5l52.984-20.733s37.627-15.358,34.555,13.822-8.447,68.342-8.447,68.342-16.894-7.679-26.108-5.375-3.072-46.841-3.072-46.841-75.253,36.091-82.164,31.483-8.447-36.859-8.447-36.859Z" transform="translate(487.463 -185.3)" fill="#2f2e41"/>
    <path id="Caminho_4" data-name="Caminho 4" d="M193.005,656.52h21.5l52.984-20.733s37.627-15.358,34.555,13.822-8.447,68.342-8.447,68.342-16.894-7.679-26.108-5.375-3.072-46.841-3.072-46.841-75.253,36.091-82.164,31.483-8.447-36.859-8.447-36.859Z" transform="translate(487.463 -185.3)" opacity="0.1"/>
    <path id="Caminho_5" data-name="Caminho 5" d="M250.987,558.82l26.021,37.385,60.663,50.681s56.056,13.054,48.377,22.269-54.52-9.215-54.52-9.215-69.878-50.681-72.182-54.52S231.7,565.49,231.7,565.49Z" transform="translate(463.356 -154.933)" fill="#deb5bb"/>
    <path id="Caminho_6" data-name="Caminho 6" d="M250.987,558.82l26.021,37.385,60.663,50.681s56.056,13.054,48.377,22.269-54.52-9.215-54.52-9.215-69.878-50.681-72.182-54.52S231.7,565.49,231.7,565.49Z" transform="translate(463.356 -154.349)" opacity="0.1"/>
    <path id="Caminho_7" data-name="Caminho 7" d="M220.2,507.092l16.894,33.019s-3.839,16.126-9.983,17.661-32.251-19.965-32.251-19.965Z" transform="translate(478.697 -133.394)" fill="#d0cde1"/>
    <path id="Caminho_8" data-name="Caminho 8" d="M220.2,507.092l16.894,33.019s-3.839,16.126-9.983,17.661-32.251-19.965-32.251-19.965Z" transform="translate(478.697 -133.394)" opacity="0.1"/>
    <path id="Caminho_9" data-name="Caminho 9" d="M574.786,644.2l4.99,20.585a1.285,1.285,0,0,1-.025.695l-22.636,70.74a1.286,1.286,0,0,1-2.5-.247l-3.132-27.558a1.285,1.285,0,0,1,.055-.544L572.314,644.1a1.286,1.286,0,0,1,2.471.1Z" transform="translate(330.206 -190.075)" fill="#2f2e41"/>
    <path id="Caminho_10" data-name="Caminho 10" d="M512.061,575.493l4.607,17.662-19.965,64.5L492.1,637.692Z" transform="translate(391.095 -119.63)" fill="#f2f2f2"/>
    <path id="Caminho_11" data-name="Caminho 11" d="M415.821,787.148c.768,2.3,79.86-.768,80.628-1.536a16.676,16.676,0,0,0,1.689-3.072c.722-1.536,1.382-3.072,1.382-3.072L496.45,754.6l-78.325-2.78s-1.958,21.071-2.357,30.716A23.062,23.062,0,0,0,415.821,787.148Z" transform="translate(386.742 -235.299)" fill="#2f2e41"/>
    <path id="Caminho_12" data-name="Caminho 12" d="M451.432,689.965l1.535,21.5H418.413v-21.5Z" transform="translate(421.776 -167.296)" opacity="0.1"/>
    <path id="Caminho_13" data-name="Caminho 13" d="M384.432,701.777l.206-.041-.974,9.256h-19.2v-9.215Z" transform="translate(444.239 -172.197)" opacity="0.1"/>
    <path id="Caminho_14" data-name="Caminho 14" d="M415.821,809.063c.768,2.3,79.86-.768,80.628-1.536a16.678,16.678,0,0,0,1.689-3.072H415.768A23.048,23.048,0,0,0,415.821,809.063Z" transform="translate(386.742 -257.213)" opacity="0.1"/>
    <circle id="Elipse_1" data-name="Elipse 1" cx="34.555" cy="34.555" r="34.555" transform="translate(675.861 293.837)" fill="#deb5bb"/>
    <path id="Caminho_15" data-name="Caminho 15" d="M216.541,460.857s-11.518,19.965-13.822,30.716-34.555-21.5-34.555-21.5l-4.223-11.134s30.332-14.206,28.028-25.724S216.541,460.857,216.541,460.857Z" transform="translate(491.572 -101.748)" fill="#deb5bb"/>
    <path id="Caminho_16" data-name="Caminho 16" d="M238.3,584.722l31.483,41.466,75.253,56.056s54.52,11.518,42.234,19.965-47.609-7.679-47.609-7.679-76.021-40.7-92.147-57.592-46.073-45.306-46.073-45.306Z" transform="translate(475.957 -165.718)" fill="#deb5bb"/>
    <path id="Caminho_17" data-name="Caminho 17" d="M143.468,691.832l9.215,14.59,54.994-17.3a43.239,43.239,0,0,1,36,4.343c9.6,6.047,15.742,15.646,1.92,29.852-27.644,28.412-46.073,13.054-46.073,13.054s-92.915,43.77-108.273,22.269-16.126-32.251-16.126-32.251S134.254,689.528,143.468,691.832Z" transform="translate(528.553 -208.325)" fill="#2f2e41"/>
    <path id="Caminho_18" data-name="Caminho 18" d="M332.066,777.156s24.573,16.126-4.607,23.8-50.681-3.072-50.681-3.072-25.34,0-25.34-13.054,8.447-14.59,8.447-14.59l26.108,3.839S317.477,765.638,332.066,777.156Z" transform="translate(455.138 -242.969)" fill="#d0cde1"/>
    <path id="Caminho_19" data-name="Caminho 19" d="M253.749,384.7c2.352,1.048,4.684,2.289,7.241,2.594s5.469-.588,6.679-2.861a8.982,8.982,0,0,0,.759-4.062c.092-4.217-.212-8.775-2.885-12.038-1.7-2.077-4.183-3.386-5.943-5.412a25.579,25.579,0,0,1-3-4.909c-3.423-6.43-8.492-12.609-15.537-14.463a33.688,33.688,0,0,0-9.069-.693l-17.74.25a30.884,30.884,0,0,0-8.534.918c-5.71,1.726-9.868,6.528-13.675,11.12a69.542,69.542,0,0,0-7.843,10.824,37.981,37.981,0,0,0-4.5,18.609,17.413,17.413,0,0,0,.638,4.924,27.333,27.333,0,0,0,1.935,4.251c3.327,6.534,5.3,14.7,1.556,21,6.508-2.659,12.948-6.144,17.241-11.712,1.921-2.491,3.427-5.406,5.986-7.234s6.73-1.986,8.372.7a7.5,7.5,0,0,1,.847,3.515c.12,2.013.117,4.1.97,5.932s2.887,3.3,4.828,2.755c3.343-.942,3.023-6.073,5.6-8.4,1.956-1.77,4.973-1.432,7.485-2.235a11.108,11.108,0,0,0,6.375-6.279c.951-2.134.938-7.717,2.738-8.872C246.523,381.462,251.657,383.765,253.749,384.7Z" transform="translate(485.014 -64.998)" fill="#2f2e41"/>
    <path id="Caminho_20" data-name="Caminho 20" d="M118.737,472.342a9.112,9.112,0,0,1,4.744.012c4.929,1.323,15.979,4.827,18.349,10.158,3.072,6.911,13.822,17.661,13.822,17.661s14.59,14.59,11.518,24.573-14.59,21.5-14.59,21.5,3.072,47.609-12.286,59.9-21.5,3.839-21.5,15.358-47.609,47.609-56.824,25.34c0,0,4.607-41.466,3.072-56.056C63.526,576.4,65.742,486.689,118.737,472.342Z" transform="translate(534.032 -118.796)" fill="#d0cde1"/>
    <path id="Caminho_21" data-name="Caminho 21" d="M175.863,504.338s46.841,34.555,38.395,49.145c0,0-28.412,13.822-34.555,13.054s-29.948-27.644-36.091-29.948S134.4,492.819,175.863,504.338Z" transform="translate(501.533 -131.407)" fill="#d0cde1"/>
    <circle id="Elipse_2" data-name="Elipse 2" cx="37.935" cy="37.935" r="37.935" transform="translate(848.74 220.648)" fill="#f2f2f2"/>
    <path id="Caminho_22" data-name="Caminho 22" d="M945.229,193.69H732.649V149.207h212.58Zm-211.643-.937H944.291V150.144H733.586Z" transform="translate(254.766 15.626)" fill="#3f3d56"/>
    <rect id="Retângulo_8" data-name="Retângulo 8" width="211.642" height="43.546" transform="translate(972.9 173.73)" fill="#7a55e5"/>
    <circle id="Elipse_3" data-name="Elipse 3" cx="3.278" cy="3.278" r="3.278" transform="translate(835.833 125.619)" fill="#7a55e5"/>
    <circle id="Elipse_4" data-name="Elipse 4" cx="3.278" cy="3.278" r="3.278" transform="translate(847.071 125.619)" fill="#7a55e5"/>
    <circle id="Elipse_5" data-name="Elipse 5" cx="3.278" cy="3.278" r="3.278" transform="translate(858.309 125.619)" fill="#7a55e5"/>
    <path id="Caminho_23" data-name="Caminho 23" d="M856.74,328.979H462.487V72.386H856.741Zm-393.317-.936H855.8V73.323H463.424Z" transform="translate(367.259 47.614)" fill="#3f3d56"/>
    <rect id="Retângulo_9" data-name="Retângulo 9" width="393.317" height="0.936" transform="translate(830.214 134.204)" fill="#3f3d56"/>
    <path id="Caminho_24" data-name="Caminho 24" d="M477.465,86.3a3.746,3.746,0,1,1,3.746-3.746A3.746,3.746,0,0,1,477.465,86.3Zm0-6.555a2.809,2.809,0,1,0,2.809,2.809,2.809,2.809,0,0,0-2.809-2.809Z" transform="translate(362.582 44.941)" fill="#3f3d56"/>
    <path id="Caminho_25" data-name="Caminho 25" d="M496.72,86.3a3.746,3.746,0,1,1,3.746-3.746A3.746,3.746,0,0,1,496.72,86.3Zm0-6.555a2.809,2.809,0,1,0,2.809,2.809,2.809,2.809,0,0,0-2.809-2.809Z" transform="translate(354.565 44.941)" fill="#3f3d56"/>
    <path id="Caminho_26" data-name="Caminho 26" d="M515.976,86.3a3.746,3.746,0,1,1,3.746-3.746A3.746,3.746,0,0,1,515.976,86.3Zm0-6.555a2.809,2.809,0,1,0,2.809,2.809,2.809,2.809,0,0,0-2.809-2.809Z" transform="translate(346.547 44.941)" fill="#3f3d56"/>
    <rect id="Retângulo_10" data-name="Retângulo 10" width="0.936" height="241.816" transform="translate(953.232 134.672)" fill="#3f3d56"/>
    <rect id="Retângulo_11" data-name="Retângulo 11" width="68.831" height="9.365" transform="translate(997.95 253.564)" fill="#f2f2f2"/>
    <rect id="Retângulo_12" data-name="Retângulo 12" width="68.831" height="9.365" transform="translate(1106.113 253.564)" fill="#f2f2f2"/>
    <path id="Caminho_27" data-name="Caminho 27" d="M826.084,302.721H756.317v-10.3h69.767Zm-68.831-.936h67.895v-8.428H757.254Z" transform="translate(244.911 -44.006)" fill="#3f3d56"/>
    <rect id="Retângulo_13" data-name="Retângulo 13" width="68.831" height="9.365" transform="translate(997.95 326.14)" fill="#f2f2f2"/>
    <path id="Caminho_28" data-name="Caminho 28" d="M826.084,427.079H756.317v-10.3h69.767Zm-68.831-.936h67.895v-8.428H757.254Z" transform="translate(244.911 -95.788)" fill="#3f3d56"/>
    <rect id="Retângulo_14" data-name="Retângulo 14" width="176.993" height="9.365" transform="translate(998.185 288.916)" fill="#f2f2f2"/>
    <path id="Caminho_29" data-name="Caminho 29" d="M934.65,364.9H756.718V354.6H934.647Zm-176.995-.936H933.711v-8.428H757.655Z" transform="translate(244.744 -69.897)" fill="#3f3d56"/>
    <path id="Caminho_30" data-name="Caminho 30" d="M1011.415,302.721H941.651v-10.3h69.764Zm-68.831-.936h67.894v-8.428H942.587Z" transform="translate(167.739 -44.006)" fill="#3f3d56"/>
    <path id="Caminho_31" data-name="Caminho 31" d="M543.55,302.88a38.518,38.518,0,1,1,38.518-38.518A38.518,38.518,0,0,1,543.55,302.88Zm0-75.869A37.351,37.351,0,1,0,580.9,264.362a37.351,37.351,0,0,0-37.351-37.351Z" transform="translate(349.544 -16.285)" fill="#3f3d56"/>
    <rect id="Retângulo_15" data-name="Retângulo 15" width="165.161" height="1.167" transform="translate(1032.577 554.472)" fill="#3f3d56"/>
  </g>
</svg>
